{
	"asset":{
		"generator":"Khronos glTF Blender I/O v5.0.21",
		"version":"2.0"
	},
	"scene":0,
	"scenes":[
		{
			"name":"Scene",
			"nodes":[
				2
			]
		}
	],
	"nodes":[
		{
			"mesh":0,
			"name":"Cube.010"
		},
		{
			"mesh":1,
			"name":"Cube.011",
			"translation":[
				0,
				0.09250165522098541,
				-4.045166015625
			]
		},
		{
			"children":[
				0,
				1
			],
			"mesh":2,
			"name":"Sidewalk"
		}
	],
	"materials":[
		{
			"doubleSided":true,
			"name":"Material.road",
			"pbrMetallicRoughness":{
				"baseColorFactor":[
					0.04961603134870529,
					0.04653163626790047,
					0.04283876344561577,
					1
				],
				"metallicFactor":0,
				"roughnessFactor":0.800000011920929
			}
		},
		{
			"doubleSided":true,
			"name":"Material.sidewalk",
			"pbrMetallicRoughness":{
				"baseColorFactor":[
					0.20155632495880127,
					0.18782083690166473,
					0.1714411824941635,
					1
				],
				"metallicFactor":0,
				"roughnessFactor":0.800000011920929
			}
		},
		{
			"doubleSided":true,
			"name":"Material.curb",
			"pbrMetallicRoughness":{
				"baseColorFactor":[
					0.4076296091079712,
					0.3790683448314667,
					0.3450673222541809,
					1
				],
				"metallicFactor":0,
				"roughnessFactor":0.800000011920929
			}
		}
	],
	"meshes":[
		{
			"name":"Cube.013",
			"primitives":[
				{
					"attributes":{
						"POSITION":0,
						"NORMAL":1,
						"TEXCOORD_0":2
					},
					"indices":3,
					"material":0
				}
			]
		},
		{
			"name":"Cube.014",
			"primitives":[
				{
					"attributes":{
						"POSITION":4,
						"NORMAL":5,
						"TEXCOORD_0":6
					},
					"indices":3,
					"material":1
				}
			]
		},
		{
			"name":"Cube",
			"primitives":[
				{
					"attributes":{
						"POSITION":7,
						"NORMAL":8,
						"TEXCOORD_0":9
					},
					"indices":10,
					"material":2
				}
			]
		}
	],
	"accessors":[
		{
			"bufferView":0,
			"componentType":5126,
			"count":24,
			"max":[
				10,
				0.021237269043922424,
				4
			],
			"min":[
				0,
				-0.14148317277431488,
				-0.06745296716690063
			],
			"type":"VEC3"
		},
		{
			"bufferView":1,
			"componentType":5126,
			"count":24,
			"type":"VEC3"
		},
		{
			"bufferView":2,
			"componentType":5126,
			"count":24,
			"type":"VEC2"
		},
		{
			"bufferView":3,
			"componentType":5123,
			"count":36,
			"type":"SCALAR"
		},
		{
			"bufferView":4,
			"componentType":5126,
			"count":24,
			"max":[
				10,
				0.021237269043922424,
				4
			],
			"min":[
				0,
				-0.14148317277431488,
				-5.954833984375
			],
			"type":"VEC3"
		},
		{
			"bufferView":5,
			"componentType":5126,
			"count":24,
			"type":"VEC3"
		},
		{
			"bufferView":6,
			"componentType":5126,
			"count":24,
			"type":"VEC2"
		},
		{
			"bufferView":7,
			"componentType":5126,
			"count":480,
			"max":[
				9.974696159362793,
				0.15166932344436646,
				0.0009005516767501831
			],
			"min":[
				1.0639429092407227e-05,
				-0.001120924949645996,
				-0.22635583579540253
			],
			"type":"VEC3"
		},
		{
			"bufferView":8,
			"componentType":5126,
			"count":480,
			"type":"VEC3"
		},
		{
			"bufferView":9,
			"componentType":5126,
			"count":480,
			"type":"VEC2"
		},
		{
			"bufferView":10,
			"componentType":5123,
			"count":720,
			"type":"SCALAR"
		}
	],
	"bufferViews":[
		{
			"buffer":0,
			"byteLength":288,
			"byteOffset":0,
			"target":34962
		},
		{
			"buffer":0,
			"byteLength":288,
			"byteOffset":288,
			"target":34962
		},
		{
			"buffer":0,
			"byteLength":192,
			"byteOffset":576,
			"target":34962
		},
		{
			"buffer":0,
			"byteLength":72,
			"byteOffset":768,
			"target":34963
		},
		{
			"buffer":0,
			"byteLength":288,
			"byteOffset":840,
			"target":34962
		},
		{
			"buffer":0,
			"byteLength":288,
			"byteOffset":1128,
			"target":34962
		},
		{
			"buffer":0,
			"byteLength":192,
			"byteOffset":1416,
			"target":34962
		},
		{
			"buffer":0,
			"byteLength":5760,
			"byteOffset":1608,
			"target":34962
		},
		{
			"buffer":0,
			"byteLength":5760,
			"byteOffset":7368,
			"target":34962
		},
		{
			"buffer":0,
			"byteLength":3840,
			"byteOffset":13128,
			"target":34962
		},
		{
			"buffer":0,
			"byteLength":1440,
			"byteOffset":16968,
			"target":34963
		}
	],
	"buffers":[
		{
			"byteLength":18408,
			"uri":"sidewalk.bin"
		}
	]
}
