{
	"asset":{
		"generator":"Khronos glTF Blender I/O v5.0.21",
		"version":"2.0"
	},
	"scene":0,
	"scenes":[
		{
			"name":"Scene",
			"nodes":[
				4
			]
		}
	],
	"nodes":[
		{
			"mesh":0,
			"name":"Cube.012",
			"translation":[
				-1.2266596555709839,
				0,
				-1
			]
		},
		{
			"mesh":1,
			"name":"Cube.013",
			"rotation":[
				0,
				-0.7071067094802856,
				0,
				0.7071068286895752
			],
			"translation":[
				1.0160157680511475,
				-0.001120924949645996,
				-0.982263445854187
			]
		},
		{
			"mesh":2,
			"name":"Cube.014",
			"rotation":[
				0,
				0.7071067094802856,
				0,
				0.7071068286895752
			],
			"translation":[
				-0.9990994930267334,
				-0.001120924949645996,
				0.9999889135360718
			]
		},
		{
			"mesh":3,
			"name":"Cube.015",
			"rotation":[
				0,
				-1,
				0,
				7.549790126404332e-08
			],
			"translation":[
				1.2451238632202148,
				0,
				1.0183022022247314
			]
		},
		{
			"children":[
				0,
				1,
				2,
				3
			],
			"mesh":4,
			"name":"TreeBed"
		}
	],
	"materials":[
		{
			"doubleSided":true,
			"name":"Material.curb.001",
			"pbrMetallicRoughness":{
				"baseColorFactor":[
					0.4076296091079712,
					0.3790683448314667,
					0.3450673222541809,
					1
				],
				"metallicFactor":0,
				"roughnessFactor":0.800000011920929
			}
		},
		{
			"doubleSided":true,
			"name":"Material.curb.005",
			"pbrMetallicRoughness":{
				"baseColorFactor":[
					0.4076296091079712,
					0.3790683448314667,
					0.3450673222541809,
					1
				],
				"metallicFactor":0,
				"roughnessFactor":0.800000011920929
			}
		},
		{
			"doubleSided":true,
			"name":"Material.curb.003",
			"pbrMetallicRoughness":{
				"baseColorFactor":[
					0.4076296091079712,
					0.3790683448314667,
					0.3450673222541809,
					1
				],
				"metallicFactor":0,
				"roughnessFactor":0.800000011920929
			}
		},
		{
			"doubleSided":true,
			"name":"Material.curb.006",
			"pbrMetallicRoughness":{
				"baseColorFactor":[
					0.4076296091079712,
					0.3790683448314667,
					0.3450673222541809,
					1
				],
				"metallicFactor":0,
				"roughnessFactor":0.800000011920929
			}
		},
		{
			"doubleSided":true,
			"name":"Material.soil",
			"pbrMetallicRoughness":{
				"baseColorFactor":[
					0.09563958644866943,
					0.052468180656433105,
					0.018598200753331184,
					1
				],
				"metallicFactor":0
			}
		}
	],
	"meshes":[
		{
			"name":"Cube.015",
			"primitives":[
				{
					"attributes":{
						"POSITION":0,
						"NORMAL":1,
						"TEXCOORD_0":2
					},
					"indices":3,
					"material":0
				}
			]
		},
		{
			"name":"Cube.019",
			"primitives":[
				{
					"attributes":{
						"POSITION":4,
						"NORMAL":5,
						"TEXCOORD_0":6
					},
					"indices":7,
					"material":1
				}
			]
		},
		{
			"name":"Cube.017",
			"primitives":[
				{
					"attributes":{
						"POSITION":8,
						"NORMAL":9,
						"TEXCOORD_0":10
					},
					"indices":7,
					"material":2
				}
			]
		},
		{
			"name":"Cube.020",
			"primitives":[
				{
					"attributes":{
						"POSITION":11,
						"NORMAL":12,
						"TEXCOORD_0":13
					},
					"indices":3,
					"material":3
				}
			]
		},
		{
			"name":"Plane",
			"primitives":[
				{
					"attributes":{
						"POSITION":14,
						"NORMAL":15,
						"TEXCOORD_0":16
					},
					"indices":17,
					"material":4
				}
			]
		}
	],
	"accessors":[
		{
			"bufferView":0,
			"componentType":5126,
			"count":120,
			"max":[
				2.4746921062469482,
				0.15166932344436646,
				0.0009005516767501831
			],
			"min":[
				1.0639429092407227e-05,
				-0.001120924949645996,
				-0.22635583579540253
			],
			"type":"VEC3"
		},
		{
			"bufferView":1,
			"componentType":5126,
			"count":120,
			"type":"VEC3"
		},
		{
			"bufferView":2,
			"componentType":5126,
			"count":120,
			"type":"VEC2"
		},
		{
			"bufferView":3,
			"componentType":5123,
			"count":180,
			"type":"SCALAR"
		},
		{
			"bufferView":4,
			"componentType":5126,
			"count":96,
			"max":[
				1.9746812582015991,
				0.15279024839401245,
				0
			],
			"min":[
				0,
				0,
				-0.2272563874721527
			],
			"type":"VEC3"
		},
		{
			"bufferView":5,
			"componentType":5126,
			"count":96,
			"type":"VEC3"
		},
		{
			"bufferView":6,
			"componentType":5126,
			"count":96,
			"type":"VEC2"
		},
		{
			"bufferView":7,
			"componentType":5123,
			"count":144,
			"type":"SCALAR"
		},
		{
			"bufferView":8,
			"componentType":5126,
			"count":96,
			"max":[
				1.9746812582015991,
				0.15279024839401245,
				0
			],
			"min":[
				0,
				0,
				-0.2272563874721527
			],
			"type":"VEC3"
		},
		{
			"bufferView":9,
			"componentType":5126,
			"count":96,
			"type":"VEC3"
		},
		{
			"bufferView":10,
			"componentType":5126,
			"count":96,
			"type":"VEC2"
		},
		{
			"bufferView":11,
			"componentType":5126,
			"count":120,
			"max":[
				2.4746921062469482,
				0.15166932344436646,
				0.0009005516767501831
			],
			"min":[
				1.0639429092407227e-05,
				-0.001120924949645996,
				-0.22635583579540253
			],
			"type":"VEC3"
		},
		{
			"bufferView":12,
			"componentType":5126,
			"count":120,
			"type":"VEC3"
		},
		{
			"bufferView":13,
			"componentType":5126,
			"count":120,
			"type":"VEC2"
		},
		{
			"bufferView":14,
			"componentType":5126,
			"count":4,
			"max":[
				1.0614988803863525,
				0.10022557526826859,
				1.0614988803863525
			],
			"min":[
				-1.0614988803863525,
				0.10022557526826859,
				-1.0614988803863525
			],
			"type":"VEC3"
		},
		{
			"bufferView":15,
			"componentType":5126,
			"count":4,
			"type":"VEC3"
		},
		{
			"bufferView":16,
			"componentType":5126,
			"count":4,
			"type":"VEC2"
		},
		{
			"bufferView":17,
			"componentType":5123,
			"count":6,
			"type":"SCALAR"
		}
	],
	"bufferViews":[
		{
			"buffer":0,
			"byteLength":1440,
			"byteOffset":0,
			"target":34962
		},
		{
			"buffer":0,
			"byteLength":1440,
			"byteOffset":1440,
			"target":34962
		},
		{
			"buffer":0,
			"byteLength":960,
			"byteOffset":2880,
			"target":34962
		},
		{
			"buffer":0,
			"byteLength":360,
			"byteOffset":3840,
			"target":34963
		},
		{
			"buffer":0,
			"byteLength":1152,
			"byteOffset":4200,
			"target":34962
		},
		{
			"buffer":0,
			"byteLength":1152,
			"byteOffset":5352,
			"target":34962
		},
		{
			"buffer":0,
			"byteLength":768,
			"byteOffset":6504,
			"target":34962
		},
		{
			"buffer":0,
			"byteLength":288,
			"byteOffset":7272,
			"target":34963
		},
		{
			"buffer":0,
			"byteLength":1152,
			"byteOffset":7560,
			"target":34962
		},
		{
			"buffer":0,
			"byteLength":1152,
			"byteOffset":8712,
			"target":34962
		},
		{
			"buffer":0,
			"byteLength":768,
			"byteOffset":9864,
			"target":34962
		},
		{
			"buffer":0,
			"byteLength":1440,
			"byteOffset":10632,
			"target":34962
		},
		{
			"buffer":0,
			"byteLength":1440,
			"byteOffset":12072,
			"target":34962
		},
		{
			"buffer":0,
			"byteLength":960,
			"byteOffset":13512,
			"target":34962
		},
		{
			"buffer":0,
			"byteLength":48,
			"byteOffset":14472,
			"target":34962
		},
		{
			"buffer":0,
			"byteLength":48,
			"byteOffset":14520,
			"target":34962
		},
		{
			"buffer":0,
			"byteLength":32,
			"byteOffset":14568,
			"target":34962
		},
		{
			"buffer":0,
			"byteLength":12,
			"byteOffset":14600,
			"target":34963
		}
	],
	"buffers":[
		{
			"byteLength":14612,
			"uri":"tree_bed.bin"
		}
	]
}
