{
	"asset":{
		"generator":"Khronos glTF Blender I/O v5.0.21",
		"version":"2.0"
	},
	"scene":0,
	"scenes":[
		{
			"name":"Scene",
			"nodes":[
				4
			]
		}
	],
	"nodes":[
		{
			"mesh":0,
			"name":"Icosphere",
			"translation":[
				-0.7334206104278564,
				3.3430230617523193,
				0
			]
		},
		{
			"mesh":1,
			"name":"Icosphere.001",
			"translation":[
				0.46826493740081787,
				3.1123833656311035,
				0.41303572058677673
			]
		},
		{
			"mesh":2,
			"name":"Icosphere.002",
			"translation":[
				0.1501513123512268,
				3.2685484886169434,
				-0.6006478071212769
			]
		},
		{
			"mesh":3,
			"name":"Icosphere.003",
			"translation":[
				0,
				4.203961372375488,
				0
			]
		},
		{
			"children":[
				0,
				1,
				2,
				3
			],
			"mesh":4,
			"name":"Tree"
		}
	],
	"materials":[
		{
			"doubleSided":true,
			"name":"Material.Leaf",
			"pbrMetallicRoughness":{
				"baseColorFactor":[
					0.09528195858001709,
					0.26409175992012024,
					0.03924601525068283,
					1
				],
				"metallicFactor":0,
				"roughnessFactor":0.800000011920929
			}
		},
		{
			"doubleSided":true,
			"name":"Material.CounterTop",
			"pbrMetallicRoughness":{
				"baseColorFactor":[
					0.1746475100517273,
					0.10224173218011856,
					0.05951125547289848,
					1
				],
				"metallicFactor":0
			}
		}
	],
	"meshes":[
		{
			"name":"Icosphere",
			"primitives":[
				{
					"attributes":{
						"POSITION":0,
						"NORMAL":1,
						"TEXCOORD_0":2
					},
					"indices":3,
					"material":0
				}
			]
		},
		{
			"name":"Icosphere.001",
			"primitives":[
				{
					"attributes":{
						"POSITION":4,
						"NORMAL":5,
						"TEXCOORD_0":6
					},
					"indices":3,
					"material":0
				}
			]
		},
		{
			"name":"Icosphere.002",
			"primitives":[
				{
					"attributes":{
						"POSITION":7,
						"NORMAL":8,
						"TEXCOORD_0":9
					},
					"indices":3,
					"material":0
				}
			]
		},
		{
			"name":"Icosphere.003",
			"primitives":[
				{
					"attributes":{
						"POSITION":10,
						"NORMAL":11,
						"TEXCOORD_0":12
					},
					"indices":3,
					"material":0
				}
			]
		},
		{
			"name":"Cylinder.002",
			"primitives":[
				{
					"attributes":{
						"POSITION":13,
						"NORMAL":14,
						"TEXCOORD_0":15
					},
					"indices":16,
					"material":1
				}
			]
		}
	],
	"accessors":[
		{
			"bufferView":0,
			"componentType":5126,
			"count":240,
			"max":[
				0.8083993792533875,
				0.8500001430511475,
				0.8500001430511475
			],
			"min":[
				-0.8083993792533875,
				-0.8500001430511475,
				-0.8500001430511475
			],
			"type":"VEC3"
		},
		{
			"bufferView":1,
			"componentType":5126,
			"count":240,
			"type":"VEC3"
		},
		{
			"bufferView":2,
			"componentType":5126,
			"count":240,
			"type":"VEC2"
		},
		{
			"bufferView":3,
			"componentType":5123,
			"count":240,
			"type":"SCALAR"
		},
		{
			"bufferView":4,
			"componentType":5126,
			"count":240,
			"max":[
				0.7228041887283325,
				0.7600002288818359,
				0.7600002288818359
			],
			"min":[
				-0.7228041887283325,
				-0.7600002288818359,
				-0.7600002288818359
			],
			"type":"VEC3"
		},
		{
			"bufferView":5,
			"componentType":5126,
			"count":240,
			"type":"VEC3"
		},
		{
			"bufferView":6,
			"componentType":5126,
			"count":240,
			"type":"VEC2"
		},
		{
			"bufferView":7,
			"componentType":5126,
			"count":240,
			"max":[
				0.7228041887283325,
				0.7600002288818359,
				0.7600002288818359
			],
			"min":[
				-0.7228041887283325,
				-0.7600002288818359,
				-0.7600002288818359
			],
			"type":"VEC3"
		},
		{
			"bufferView":8,
			"componentType":5126,
			"count":240,
			"type":"VEC3"
		},
		{
			"bufferView":9,
			"componentType":5126,
			"count":240,
			"type":"VEC2"
		},
		{
			"bufferView":10,
			"componentType":5126,
			"count":240,
			"max":[
				0.9510578513145447,
				1,
				0.9999999403953552
			],
			"min":[
				-0.9510578513145447,
				-1,
				-0.9999999403953552
			],
			"type":"VEC3"
		},
		{
			"bufferView":11,
			"componentType":5126,
			"count":240,
			"type":"VEC3"
		},
		{
			"bufferView":12,
			"componentType":5126,
			"count":240,
			"type":"VEC2"
		},
		{
			"bufferView":13,
			"componentType":5126,
			"count":48,
			"max":[
				0.2200000286102295,
				5,
				0.2200000286102295
			],
			"min":[
				-0.2200000286102295,
				0,
				-0.2200000286102295
			],
			"type":"VEC3"
		},
		{
			"bufferView":14,
			"componentType":5126,
			"count":48,
			"type":"VEC3"
		},
		{
			"bufferView":15,
			"componentType":5126,
			"count":48,
			"type":"VEC2"
		},
		{
			"bufferView":16,
			"componentType":5123,
			"count":84,
			"type":"SCALAR"
		}
	],
	"bufferViews":[
		{
			"buffer":0,
			"byteLength":2880,
			"byteOffset":0,
			"target":34962
		},
		{
			"buffer":0,
			"byteLength":2880,
			"byteOffset":2880,
			"target":34962
		},
		{
			"buffer":0,
			"byteLength":1920,
			"byteOffset":5760,
			"target":34962
		},
		{
			"buffer":0,
			"byteLength":480,
			"byteOffset":7680,
			"target":34963
		},
		{
			"buffer":0,
			"byteLength":2880,
			"byteOffset":8160,
			"target":34962
		},
		{
			"buffer":0,
			"byteLength":2880,
			"byteOffset":11040,
			"target":34962
		},
		{
			"buffer":0,
			"byteLength":1920,
			"byteOffset":13920,
			"target":34962
		},
		{
			"buffer":0,
			"byteLength":2880,
			"byteOffset":15840,
			"target":34962
		},
		{
			"buffer":0,
			"byteLength":2880,
			"byteOffset":18720,
			"target":34962
		},
		{
			"buffer":0,
			"byteLength":1920,
			"byteOffset":21600,
			"target":34962
		},
		{
			"buffer":0,
			"byteLength":2880,
			"byteOffset":23520,
			"target":34962
		},
		{
			"buffer":0,
			"byteLength":2880,
			"byteOffset":26400,
			"target":34962
		},
		{
			"buffer":0,
			"byteLength":1920,
			"byteOffset":29280,
			"target":34962
		},
		{
			"buffer":0,
			"byteLength":576,
			"byteOffset":31200,
			"target":34962
		},
		{
			"buffer":0,
			"byteLength":576,
			"byteOffset":31776,
			"target":34962
		},
		{
			"buffer":0,
			"byteLength":384,
			"byteOffset":32352,
			"target":34962
		},
		{
			"buffer":0,
			"byteLength":168,
			"byteOffset":32736,
			"target":34963
		}
	],
	"buffers":[
		{
			"byteLength":32904,
			"uri":"tree.bin"
		}
	]
}
