{
	"asset":{
		"generator":"Khronos glTF Blender I/O v5.0.21",
		"version":"2.0"
	},
	"scene":0,
	"scenes":[
		{
			"name":"Scene",
			"nodes":[
				2
			]
		}
	],
	"nodes":[
		{
			"mesh":0,
			"name":"Cube"
		},
		{
			"mesh":1,
			"name":"Plate2",
			"scale":[
				0.855648934841156,
				0.045509397983551025,
				0.855648934841156
			],
			"translation":[
				0,
				0.5918938517570496,
				0
			]
		},
		{
			"children":[
				0,
				1
			],
			"mesh":2,
			"name":"Counter"
		}
	],
	"materials":[
		{
			"doubleSided":true,
			"name":"Material.CounterTop",
			"pbrMetallicRoughness":{
				"baseColorFactor":[
					0.1746475100517273,
					0.10224173218011856,
					0.05951125547289848,
					1
				],
				"metallicFactor":0
			}
		},
		{
			"doubleSided":true,
			"name":"Material_plate",
			"pbrMetallicRoughness":{
				"baseColorFactor":[
					0.5777089595794678,
					0.6159876585006714,
					0.800039529800415,
					1
				],
				"metallicFactor":0,
				"roughnessFactor":0.20000000298023224
			}
		},
		{
			"doubleSided":true,
			"name":"Material.Counter",
			"pbrMetallicRoughness":{
				"baseColorFactor":[
					0.25265809893608093,
					0.0848078727722168,
					0.04398825019598007,
					1
				],
				"metallicFactor":0,
				"roughnessFactor":0.6000000238418579
			}
		}
	],
	"meshes":[
		{
			"name":"Cube.001",
			"primitives":[
				{
					"attributes":{
						"POSITION":0,
						"NORMAL":1,
						"TEXCOORD_0":2
					},
					"indices":3,
					"material":0
				}
			]
		},
		{
			"name":"Plate2",
			"primitives":[
				{
					"attributes":{
						"POSITION":4,
						"NORMAL":5,
						"TEXCOORD_0":6
					},
					"indices":7,
					"material":1
				}
			]
		},
		{
			"name":"Mesh_0",
			"primitives":[
				{
					"attributes":{
						"POSITION":8,
						"NORMAL":9,
						"TEXCOORD_0":10
					},
					"indices":11,
					"material":2
				}
			]
		}
	],
	"accessors":[
		{
			"bufferView":0,
			"componentType":5126,
			"count":24,
			"max":[
				0.5148928761482239,
				0.5458422303199768,
				0.5148928761482239
			],
			"min":[
				-0.5148928761482239,
				0.38937151432037354,
				-0.5148928761482239
			],
			"type":"VEC3"
		},
		{
			"bufferView":1,
			"componentType":5126,
			"count":24,
			"type":"VEC3"
		},
		{
			"bufferView":2,
			"componentType":5126,
			"count":24,
			"type":"VEC2"
		},
		{
			"bufferView":3,
			"componentType":5123,
			"count":36,
			"type":"SCALAR"
		},
		{
			"bufferView":4,
			"componentType":5126,
			"count":288,
			"max":[
				0.5,
				1,
				0.5
			],
			"min":[
				-0.5,
				-1,
				-0.5
			],
			"type":"VEC3"
		},
		{
			"bufferView":5,
			"componentType":5126,
			"count":288,
			"type":"VEC3"
		},
		{
			"bufferView":6,
			"componentType":5126,
			"count":288,
			"type":"VEC2"
		},
		{
			"bufferView":7,
			"componentType":5123,
			"count":288,
			"type":"SCALAR"
		},
		{
			"bufferView":8,
			"componentType":5126,
			"count":24,
			"max":[
				0.5,
				0.5,
				0.5
			],
			"min":[
				-0.5,
				-0.5,
				-0.5
			],
			"type":"VEC3"
		},
		{
			"bufferView":9,
			"componentType":5126,
			"count":24,
			"type":"VEC3"
		},
		{
			"bufferView":10,
			"componentType":5126,
			"count":24,
			"type":"VEC2"
		},
		{
			"bufferView":11,
			"componentType":5123,
			"count":36,
			"type":"SCALAR"
		}
	],
	"bufferViews":[
		{
			"buffer":0,
			"byteLength":288,
			"byteOffset":0,
			"target":34962
		},
		{
			"buffer":0,
			"byteLength":288,
			"byteOffset":288,
			"target":34962
		},
		{
			"buffer":0,
			"byteLength":192,
			"byteOffset":576,
			"target":34962
		},
		{
			"buffer":0,
			"byteLength":72,
			"byteOffset":768,
			"target":34963
		},
		{
			"buffer":0,
			"byteLength":3456,
			"byteOffset":840,
			"target":34962
		},
		{
			"buffer":0,
			"byteLength":3456,
			"byteOffset":4296,
			"target":34962
		},
		{
			"buffer":0,
			"byteLength":2304,
			"byteOffset":7752,
			"target":34962
		},
		{
			"buffer":0,
			"byteLength":576,
			"byteOffset":10056,
			"target":34963
		},
		{
			"buffer":0,
			"byteLength":288,
			"byteOffset":10632,
			"target":34962
		},
		{
			"buffer":0,
			"byteLength":288,
			"byteOffset":10920,
			"target":34962
		},
		{
			"buffer":0,
			"byteLength":192,
			"byteOffset":11208,
			"target":34962
		},
		{
			"buffer":0,
			"byteLength":72,
			"byteOffset":11400,
			"target":34963
		}
	],
	"buffers":[
		{
			"byteLength":11472,
			"uri":"counter.bin"
		}
	]
}
