{
	"asset":{
		"generator":"Khronos glTF Blender I/O v5.0.21",
		"version":"2.0"
	},
	"scene":0,
	"scenes":[
		{
			"name":"Scene",
			"nodes":[
				2
			]
		}
	],
	"nodes":[
		{
			"mesh":0,
			"name":"TableFoot",
			"scale":[
				0.5239740014076233,
				0.5239740014076233,
				0.5239740014076233
			],
			"translation":[
				0,
				-0.8935300707817078,
				0
			]
		},
		{
			"mesh":1,
			"name":"TableLeg",
			"scale":[
				0.7762657403945923,
				0.6915832161903381,
				0.7762657403945923
			],
			"translation":[
				0,
				-0.42668116092681885,
				0
			]
		},
		{
			"children":[
				0,
				1
			],
			"mesh":2,
			"name":"TableTop",
			"translation":[
				0,
				0.9086874723434448,
				0
			]
		}
	],
	"materials":[
		{
			"doubleSided":true,
			"name":"Material_plate",
			"pbrMetallicRoughness":{
				"baseColorFactor":[
					0.5777089595794678,
					0.6159876585006714,
					0.800039529800415,
					1
				],
				"metallicFactor":0,
				"roughnessFactor":0.20000000298023224
			}
		},
		{
			"doubleSided":true,
			"name":"Material.CounterTop",
			"pbrMetallicRoughness":{
				"baseColorFactor":[
					0.1746475100517273,
					0.10224173218011856,
					0.05951125547289848,
					1
				],
				"metallicFactor":0
			}
		}
	],
	"meshes":[
		{
			"name":"Circle.001",
			"primitives":[
				{
					"attributes":{
						"POSITION":0,
						"NORMAL":1,
						"TEXCOORD_0":2
					},
					"indices":3,
					"material":0
				}
			]
		},
		{
			"name":"Cylinder.003",
			"primitives":[
				{
					"attributes":{
						"POSITION":4,
						"NORMAL":5,
						"TEXCOORD_0":6
					},
					"indices":7,
					"material":0
				}
			]
		},
		{
			"name":"Circle",
			"primitives":[
				{
					"attributes":{
						"POSITION":8,
						"NORMAL":9,
						"TEXCOORD_0":10
					},
					"indices":3,
					"material":1
				}
			]
		}
	],
	"accessors":[
		{
			"bufferView":0,
			"componentType":5126,
			"count":98,
			"max":[
				0.5,
				0.04718562588095665,
				0.5
			],
			"min":[
				-0.5,
				0,
				-0.5
			],
			"type":"VEC3"
		},
		{
			"bufferView":1,
			"componentType":5126,
			"count":98,
			"type":"VEC3"
		},
		{
			"bufferView":2,
			"componentType":5126,
			"count":98,
			"type":"VEC2"
		},
		{
			"bufferView":3,
			"componentType":5123,
			"count":192,
			"type":"SCALAR"
		},
		{
			"bufferView":4,
			"componentType":5126,
			"count":24,
			"max":[
				0.08999998867511749,
				0.666947066783905,
				0.08999998867511749
			],
			"min":[
				-0.08999998867511749,
				-0.666947066783905,
				-0.08999998867511749
			],
			"type":"VEC3"
		},
		{
			"bufferView":5,
			"componentType":5126,
			"count":24,
			"type":"VEC3"
		},
		{
			"bufferView":6,
			"componentType":5126,
			"count":24,
			"type":"VEC2"
		},
		{
			"bufferView":7,
			"componentType":5123,
			"count":36,
			"type":"SCALAR"
		},
		{
			"bufferView":8,
			"componentType":5126,
			"count":98,
			"max":[
				0.5,
				0.04718562588095665,
				0.5
			],
			"min":[
				-0.5,
				0,
				-0.5
			],
			"type":"VEC3"
		},
		{
			"bufferView":9,
			"componentType":5126,
			"count":98,
			"type":"VEC3"
		},
		{
			"bufferView":10,
			"componentType":5126,
			"count":98,
			"type":"VEC2"
		}
	],
	"bufferViews":[
		{
			"buffer":0,
			"byteLength":1176,
			"byteOffset":0,
			"target":34962
		},
		{
			"buffer":0,
			"byteLength":1176,
			"byteOffset":1176,
			"target":34962
		},
		{
			"buffer":0,
			"byteLength":784,
			"byteOffset":2352,
			"target":34962
		},
		{
			"buffer":0,
			"byteLength":384,
			"byteOffset":3136,
			"target":34963
		},
		{
			"buffer":0,
			"byteLength":288,
			"byteOffset":3520,
			"target":34962
		},
		{
			"buffer":0,
			"byteLength":288,
			"byteOffset":3808,
			"target":34962
		},
		{
			"buffer":0,
			"byteLength":192,
			"byteOffset":4096,
			"target":34962
		},
		{
			"buffer":0,
			"byteLength":72,
			"byteOffset":4288,
			"target":34963
		},
		{
			"buffer":0,
			"byteLength":1176,
			"byteOffset":4360,
			"target":34962
		},
		{
			"buffer":0,
			"byteLength":1176,
			"byteOffset":5536,
			"target":34962
		},
		{
			"buffer":0,
			"byteLength":784,
			"byteOffset":6712,
			"target":34962
		}
	],
	"buffers":[
		{
			"byteLength":7496,
			"uri":"table.bin"
		}
	]
}
