{
	"asset":{
		"generator":"Khronos glTF Blender I/O v5.0.21",
		"version":"2.0"
	},
	"scene":0,
	"scenes":[
		{
			"name":"Scene",
			"nodes":[
				7
			]
		}
	],
	"nodes":[
		{
			"mesh":0,
			"name":"MeshInstance3D2",
			"scale":[
				0.782365620136261,
				0.0751495510339737,
				0.11096971482038498
			],
			"translation":[
				0,
				0.295451283454895,
				0.520655632019043
			]
		},
		{
			"mesh":1,
			"name":"MeshInstance3D",
			"rotation":[
				0,
				-0.4772814214229584,
				0,
				0.8787505030632019
			],
			"scale":[
				0.590758204460144,
				1,
				0.17466433346271515
			],
			"translation":[
				0.3969362676143646,
				0,
				0.6479031443595886
			]
		},
		{
			"children":[
				1
			],
			"mesh":2,
			"name":"Pan2",
			"scale":[
				0.53151535987854,
				0.045509397983551025,
				0.53151535987854
			],
			"translation":[
				0.21546971797943115,
				0.5932633280754089,
				0.19592443108558655
			]
		},
		{
			"mesh":3,
			"name":"Plate2.001",
			"scale":[
				0.38651567697525024,
				0.045509397983551025,
				0.38651567697525024
			],
			"translation":[
				-0.22229737043380737,
				0.5219694972038269,
				-0.2425011396408081
			]
		},
		{
			"mesh":4,
			"name":"Plate23",
			"scale":[
				0.38651567697525024,
				0.045509397983551025,
				0.38651567697525024
			],
			"translation":[
				-0.22229737043380737,
				0.5219694972038269,
				0.22513628005981445
			]
		},
		{
			"mesh":5,
			"name":"Plate32",
			"scale":[
				0.38651567697525024,
				0.045509397983551025,
				0.38651567697525024
			],
			"translation":[
				0.2403186559677124,
				0.5219694972038269,
				0.22513628005981445
			]
		},
		{
			"mesh":6,
			"name":"Plate42",
			"scale":[
				0.38651567697525024,
				0.045509397983551025,
				0.38651567697525024
			],
			"translation":[
				0.2403186559677124,
				0.5219694972038269,
				-0.24416473507881165
			]
		},
		{
			"children":[
				0,
				2,
				3,
				4,
				5,
				6
			],
			"mesh":7,
			"name":"Stove"
		}
	],
	"materials":[
		{
			"doubleSided":true,
			"name":"Material.StoveBar",
			"pbrMetallicRoughness":{
				"baseColorFactor":[
					0.5576829314231873,
					0.5576829314231873,
					0.5576829314231873,
					1
				],
				"roughnessFactor":0.699999988079071
			}
		},
		{
			"doubleSided":true,
			"name":"Material.Pan",
			"pbrMetallicRoughness":{
				"baseColorFactor":[
					0.4648844003677368,
					0.46244752407073975,
					0.6320948600769043,
					1
				],
				"roughnessFactor":0.6000000238418579
			}
		},
		{
			"name":"Material_StoveTop",
			"pbrMetallicRoughness":{
				"baseColorFactor":[
					0.07898901402950287,
					0.08056984096765518,
					0.10700292140245438,
					1
				]
			}
		},
		{
			"doubleSided":true,
			"name":"Material.Stove",
			"pbrMetallicRoughness":{
				"baseColorFactor":[
					0.2788453996181488,
					0.30119961500167847,
					0.37434351444244385,
					1
				],
				"roughnessFactor":0.699999988079071
			}
		}
	],
	"meshes":[
		{
			"name":"Mesh_7",
			"primitives":[
				{
					"attributes":{
						"POSITION":0,
						"NORMAL":1,
						"TEXCOORD_0":2
					},
					"indices":3,
					"material":0
				}
			]
		},
		{
			"name":"Mesh_6",
			"primitives":[
				{
					"attributes":{
						"POSITION":4,
						"NORMAL":5,
						"TEXCOORD_0":6
					},
					"indices":3,
					"material":1
				}
			]
		},
		{
			"name":"Pan2",
			"primitives":[
				{
					"attributes":{
						"POSITION":7,
						"NORMAL":8,
						"TEXCOORD_0":9
					},
					"indices":10,
					"material":1
				}
			]
		},
		{
			"name":"Plate2.001",
			"primitives":[
				{
					"attributes":{
						"POSITION":11,
						"NORMAL":12,
						"TEXCOORD_0":13
					},
					"indices":10,
					"material":2
				}
			]
		},
		{
			"name":"Plate23",
			"primitives":[
				{
					"attributes":{
						"POSITION":14,
						"NORMAL":15,
						"TEXCOORD_0":16
					},
					"indices":10,
					"material":2
				}
			]
		},
		{
			"name":"Plate32",
			"primitives":[
				{
					"attributes":{
						"POSITION":17,
						"NORMAL":18,
						"TEXCOORD_0":19
					},
					"indices":10,
					"material":2
				}
			]
		},
		{
			"name":"Plate42",
			"primitives":[
				{
					"attributes":{
						"POSITION":20,
						"NORMAL":21,
						"TEXCOORD_0":22
					},
					"indices":10,
					"material":2
				}
			]
		},
		{
			"name":"Mesh_0.001",
			"primitives":[
				{
					"attributes":{
						"POSITION":23,
						"NORMAL":24,
						"TEXCOORD_0":25
					},
					"indices":3,
					"material":3
				}
			]
		}
	],
	"accessors":[
		{
			"bufferView":0,
			"componentType":5126,
			"count":24,
			"max":[
				0.5,
				0.5,
				0.5
			],
			"min":[
				-0.5,
				-0.5,
				-0.5
			],
			"type":"VEC3"
		},
		{
			"bufferView":1,
			"componentType":5126,
			"count":24,
			"type":"VEC3"
		},
		{
			"bufferView":2,
			"componentType":5126,
			"count":24,
			"type":"VEC2"
		},
		{
			"bufferView":3,
			"componentType":5123,
			"count":36,
			"type":"SCALAR"
		},
		{
			"bufferView":4,
			"componentType":5126,
			"count":24,
			"max":[
				0.5,
				0.5,
				0.5
			],
			"min":[
				-0.5,
				-0.5,
				-0.5
			],
			"type":"VEC3"
		},
		{
			"bufferView":5,
			"componentType":5126,
			"count":24,
			"type":"VEC3"
		},
		{
			"bufferView":6,
			"componentType":5126,
			"count":24,
			"type":"VEC2"
		},
		{
			"bufferView":7,
			"componentType":5126,
			"count":288,
			"max":[
				0.5,
				1,
				0.5
			],
			"min":[
				-0.5,
				-1,
				-0.5
			],
			"type":"VEC3"
		},
		{
			"bufferView":8,
			"componentType":5126,
			"count":288,
			"type":"VEC3"
		},
		{
			"bufferView":9,
			"componentType":5126,
			"count":288,
			"type":"VEC2"
		},
		{
			"bufferView":10,
			"componentType":5123,
			"count":288,
			"type":"SCALAR"
		},
		{
			"bufferView":11,
			"componentType":5126,
			"count":288,
			"max":[
				0.5,
				1,
				0.5
			],
			"min":[
				-0.5,
				-1,
				-0.5
			],
			"type":"VEC3"
		},
		{
			"bufferView":12,
			"componentType":5126,
			"count":288,
			"type":"VEC3"
		},
		{
			"bufferView":13,
			"componentType":5126,
			"count":288,
			"type":"VEC2"
		},
		{
			"bufferView":14,
			"componentType":5126,
			"count":288,
			"max":[
				0.5,
				1,
				0.5
			],
			"min":[
				-0.5,
				-1,
				-0.5
			],
			"type":"VEC3"
		},
		{
			"bufferView":15,
			"componentType":5126,
			"count":288,
			"type":"VEC3"
		},
		{
			"bufferView":16,
			"componentType":5126,
			"count":288,
			"type":"VEC2"
		},
		{
			"bufferView":17,
			"componentType":5126,
			"count":288,
			"max":[
				0.5,
				1,
				0.5
			],
			"min":[
				-0.5,
				-1,
				-0.5
			],
			"type":"VEC3"
		},
		{
			"bufferView":18,
			"componentType":5126,
			"count":288,
			"type":"VEC3"
		},
		{
			"bufferView":19,
			"componentType":5126,
			"count":288,
			"type":"VEC2"
		},
		{
			"bufferView":20,
			"componentType":5126,
			"count":288,
			"max":[
				0.5,
				1,
				0.5
			],
			"min":[
				-0.5,
				-1,
				-0.5
			],
			"type":"VEC3"
		},
		{
			"bufferView":21,
			"componentType":5126,
			"count":288,
			"type":"VEC3"
		},
		{
			"bufferView":22,
			"componentType":5126,
			"count":288,
			"type":"VEC2"
		},
		{
			"bufferView":23,
			"componentType":5126,
			"count":24,
			"max":[
				0.5,
				0.5,
				0.5
			],
			"min":[
				-0.5,
				-0.5,
				-0.5
			],
			"type":"VEC3"
		},
		{
			"bufferView":24,
			"componentType":5126,
			"count":24,
			"type":"VEC3"
		},
		{
			"bufferView":25,
			"componentType":5126,
			"count":24,
			"type":"VEC2"
		}
	],
	"bufferViews":[
		{
			"buffer":0,
			"byteLength":288,
			"byteOffset":0,
			"target":34962
		},
		{
			"buffer":0,
			"byteLength":288,
			"byteOffset":288,
			"target":34962
		},
		{
			"buffer":0,
			"byteLength":192,
			"byteOffset":576,
			"target":34962
		},
		{
			"buffer":0,
			"byteLength":72,
			"byteOffset":768,
			"target":34963
		},
		{
			"buffer":0,
			"byteLength":288,
			"byteOffset":840,
			"target":34962
		},
		{
			"buffer":0,
			"byteLength":288,
			"byteOffset":1128,
			"target":34962
		},
		{
			"buffer":0,
			"byteLength":192,
			"byteOffset":1416,
			"target":34962
		},
		{
			"buffer":0,
			"byteLength":3456,
			"byteOffset":1608,
			"target":34962
		},
		{
			"buffer":0,
			"byteLength":3456,
			"byteOffset":5064,
			"target":34962
		},
		{
			"buffer":0,
			"byteLength":2304,
			"byteOffset":8520,
			"target":34962
		},
		{
			"buffer":0,
			"byteLength":576,
			"byteOffset":10824,
			"target":34963
		},
		{
			"buffer":0,
			"byteLength":3456,
			"byteOffset":11400,
			"target":34962
		},
		{
			"buffer":0,
			"byteLength":3456,
			"byteOffset":14856,
			"target":34962
		},
		{
			"buffer":0,
			"byteLength":2304,
			"byteOffset":18312,
			"target":34962
		},
		{
			"buffer":0,
			"byteLength":3456,
			"byteOffset":20616,
			"target":34962
		},
		{
			"buffer":0,
			"byteLength":3456,
			"byteOffset":24072,
			"target":34962
		},
		{
			"buffer":0,
			"byteLength":2304,
			"byteOffset":27528,
			"target":34962
		},
		{
			"buffer":0,
			"byteLength":3456,
			"byteOffset":29832,
			"target":34962
		},
		{
			"buffer":0,
			"byteLength":3456,
			"byteOffset":33288,
			"target":34962
		},
		{
			"buffer":0,
			"byteLength":2304,
			"byteOffset":36744,
			"target":34962
		},
		{
			"buffer":0,
			"byteLength":3456,
			"byteOffset":39048,
			"target":34962
		},
		{
			"buffer":0,
			"byteLength":3456,
			"byteOffset":42504,
			"target":34962
		},
		{
			"buffer":0,
			"byteLength":2304,
			"byteOffset":45960,
			"target":34962
		},
		{
			"buffer":0,
			"byteLength":288,
			"byteOffset":48264,
			"target":34962
		},
		{
			"buffer":0,
			"byteLength":288,
			"byteOffset":48552,
			"target":34962
		},
		{
			"buffer":0,
			"byteLength":192,
			"byteOffset":48840,
			"target":34962
		}
	],
	"buffers":[
		{
			"byteLength":49032,
			"uri":"stove.bin"
		}
	]
}
